<mxfile host="Electron" modified="2023-12-02T20:11:41.915Z" agent="Mozilla/5.0 (Windows NT 10.0; Win64; x64) AppleWebKit/537.36 (KHTML, like Gecko) draw.io/21.7.5 Chrome/114.0.5735.289 Electron/25.8.1 Safari/537.36" etag="3WCm9AeKt6hsZgA1IJ5n" version="21.7.5" type="device">
  <diagram name="Страница — 1" id="g-rdGVcLVPXYEfXNsPD2">
    <mxGraphModel dx="955" dy="565" grid="1" gridSize="10" guides="1" tooltips="1" connect="1" arrows="1" fold="1" page="1" pageScale="1" pageWidth="827" pageHeight="1169" math="0" shadow="0">
      <root>
        <mxCell id="0" />
        <mxCell id="1" parent="0" />
        <mxCell id="BrDhmX7CSqBO9YSk4uF9-1" value="Регистрация" style="ellipse;whiteSpace=wrap;html=1;" vertex="1" parent="1">
          <mxGeometry x="180" y="80" width="150" height="50" as="geometry" />
        </mxCell>
        <mxCell id="BrDhmX7CSqBO9YSk4uF9-2" value="Авторизация" style="ellipse;whiteSpace=wrap;html=1;" vertex="1" parent="1">
          <mxGeometry x="180" y="160" width="150" height="50" as="geometry" />
        </mxCell>
        <mxCell id="BrDhmX7CSqBO9YSk4uF9-3" value="Восстановление пароля" style="ellipse;whiteSpace=wrap;html=1;" vertex="1" parent="1">
          <mxGeometry x="490" y="290" width="150" height="50" as="geometry" />
        </mxCell>
        <mxCell id="BrDhmX7CSqBO9YSk4uF9-6" value="Комментирование записей" style="ellipse;whiteSpace=wrap;html=1;" vertex="1" parent="1">
          <mxGeometry x="490" y="370" width="150" height="50" as="geometry" />
        </mxCell>
        <mxCell id="BrDhmX7CSqBO9YSk4uF9-8" style="rounded=0;orthogonalLoop=1;jettySize=auto;html=1;entryX=0;entryY=0.5;entryDx=0;entryDy=0;dashed=1;" edge="1" parent="1" source="BrDhmX7CSqBO9YSk4uF9-7" target="BrDhmX7CSqBO9YSk4uF9-3">
          <mxGeometry relative="1" as="geometry" />
        </mxCell>
        <mxCell id="BrDhmX7CSqBO9YSk4uF9-9" value="включает" style="edgeLabel;html=1;align=center;verticalAlign=middle;resizable=0;points=[];" vertex="1" connectable="0" parent="BrDhmX7CSqBO9YSk4uF9-8">
          <mxGeometry x="-0.4016" y="3" relative="1" as="geometry">
            <mxPoint x="29" y="4" as="offset" />
          </mxGeometry>
        </mxCell>
        <mxCell id="BrDhmX7CSqBO9YSk4uF9-7" value="Управление аккаунтом" style="ellipse;whiteSpace=wrap;html=1;" vertex="1" parent="1">
          <mxGeometry x="180" y="240" width="150" height="50" as="geometry" />
        </mxCell>
        <mxCell id="BrDhmX7CSqBO9YSk4uF9-11" style="rounded=0;orthogonalLoop=1;jettySize=auto;html=1;entryX=0;entryY=0.5;entryDx=0;entryDy=0;dashed=1;exitX=1;exitY=0.5;exitDx=0;exitDy=0;" edge="1" target="BrDhmX7CSqBO9YSk4uF9-13" parent="1" source="BrDhmX7CSqBO9YSk4uF9-7">
          <mxGeometry relative="1" as="geometry">
            <mxPoint x="330" y="185" as="sourcePoint" />
          </mxGeometry>
        </mxCell>
        <mxCell id="BrDhmX7CSqBO9YSk4uF9-12" value="включает" style="edgeLabel;html=1;align=center;verticalAlign=middle;resizable=0;points=[];" vertex="1" connectable="0" parent="BrDhmX7CSqBO9YSk4uF9-11">
          <mxGeometry x="-0.4016" y="3" relative="1" as="geometry">
            <mxPoint x="37" y="-9" as="offset" />
          </mxGeometry>
        </mxCell>
        <mxCell id="BrDhmX7CSqBO9YSk4uF9-13" value="Смена пароля" style="ellipse;whiteSpace=wrap;html=1;" vertex="1" parent="1">
          <mxGeometry x="490" y="190" width="150" height="50" as="geometry" />
        </mxCell>
        <mxCell id="BrDhmX7CSqBO9YSk4uF9-15" style="rounded=0;orthogonalLoop=1;jettySize=auto;html=1;entryX=0;entryY=0.5;entryDx=0;entryDy=0;" edge="1" parent="1" source="BrDhmX7CSqBO9YSk4uF9-14" target="BrDhmX7CSqBO9YSk4uF9-1">
          <mxGeometry relative="1" as="geometry" />
        </mxCell>
        <mxCell id="BrDhmX7CSqBO9YSk4uF9-16" style="rounded=0;orthogonalLoop=1;jettySize=auto;html=1;entryX=0;entryY=0.5;entryDx=0;entryDy=0;" edge="1" parent="1" source="BrDhmX7CSqBO9YSk4uF9-14" target="BrDhmX7CSqBO9YSk4uF9-2">
          <mxGeometry relative="1" as="geometry" />
        </mxCell>
        <mxCell id="BrDhmX7CSqBO9YSk4uF9-17" style="rounded=0;orthogonalLoop=1;jettySize=auto;html=1;entryX=0;entryY=0.5;entryDx=0;entryDy=0;" edge="1" parent="1" source="BrDhmX7CSqBO9YSk4uF9-14" target="BrDhmX7CSqBO9YSk4uF9-7">
          <mxGeometry relative="1" as="geometry" />
        </mxCell>
        <mxCell id="BrDhmX7CSqBO9YSk4uF9-30" style="rounded=0;orthogonalLoop=1;jettySize=auto;html=1;entryX=0;entryY=0.5;entryDx=0;entryDy=0;" edge="1" parent="1" source="BrDhmX7CSqBO9YSk4uF9-25" target="BrDhmX7CSqBO9YSk4uF9-29">
          <mxGeometry relative="1" as="geometry" />
        </mxCell>
        <mxCell id="BrDhmX7CSqBO9YSk4uF9-44" style="rounded=0;orthogonalLoop=1;jettySize=auto;html=1;entryX=0;entryY=0.5;entryDx=0;entryDy=0;" edge="1" parent="1" source="BrDhmX7CSqBO9YSk4uF9-14" target="BrDhmX7CSqBO9YSk4uF9-43">
          <mxGeometry relative="1" as="geometry" />
        </mxCell>
        <mxCell id="BrDhmX7CSqBO9YSk4uF9-14" value="Пользователь" style="shape=umlActor;verticalLabelPosition=bottom;verticalAlign=top;html=1;outlineConnect=0;" vertex="1" parent="1">
          <mxGeometry x="40" y="155" width="30" height="60" as="geometry" />
        </mxCell>
        <mxCell id="BrDhmX7CSqBO9YSk4uF9-24" style="rounded=0;orthogonalLoop=1;jettySize=auto;html=1;endArrow=block;endFill=0;" edge="1" parent="1" source="BrDhmX7CSqBO9YSk4uF9-21">
          <mxGeometry relative="1" as="geometry">
            <mxPoint x="55" y="150" as="targetPoint" />
          </mxGeometry>
        </mxCell>
        <mxCell id="BrDhmX7CSqBO9YSk4uF9-42" style="edgeStyle=orthogonalEdgeStyle;rounded=0;orthogonalLoop=1;jettySize=auto;html=1;entryX=0;entryY=0.5;entryDx=0;entryDy=0;" edge="1" parent="1" source="BrDhmX7CSqBO9YSk4uF9-21" target="BrDhmX7CSqBO9YSk4uF9-41">
          <mxGeometry relative="1" as="geometry" />
        </mxCell>
        <mxCell id="BrDhmX7CSqBO9YSk4uF9-21" value="Наблюдатель" style="shape=umlActor;verticalLabelPosition=bottom;verticalAlign=top;html=1;outlineConnect=0;" vertex="1" parent="1">
          <mxGeometry x="40" width="30" height="60" as="geometry" />
        </mxCell>
        <mxCell id="BrDhmX7CSqBO9YSk4uF9-25" value="Владелец &lt;br&gt;домашнего &lt;br&gt;животного&amp;nbsp;" style="shape=umlActor;verticalLabelPosition=bottom;verticalAlign=top;html=1;outlineConnect=0;" vertex="1" parent="1">
          <mxGeometry x="40" y="465" width="30" height="60" as="geometry" />
        </mxCell>
        <mxCell id="BrDhmX7CSqBO9YSk4uF9-27" style="rounded=0;orthogonalLoop=1;jettySize=auto;html=1;endArrow=block;endFill=0;" edge="1" parent="1">
          <mxGeometry relative="1" as="geometry">
            <mxPoint x="55" y="460" as="sourcePoint" />
            <mxPoint x="55" y="240" as="targetPoint" />
          </mxGeometry>
        </mxCell>
        <mxCell id="BrDhmX7CSqBO9YSk4uF9-34" style="rounded=0;orthogonalLoop=1;jettySize=auto;html=1;entryX=0;entryY=0.5;entryDx=0;entryDy=0;dashed=1;exitX=1;exitY=0.5;exitDx=0;exitDy=0;" edge="1" parent="1" source="BrDhmX7CSqBO9YSk4uF9-43" target="BrDhmX7CSqBO9YSk4uF9-6">
          <mxGeometry relative="1" as="geometry" />
        </mxCell>
        <mxCell id="BrDhmX7CSqBO9YSk4uF9-37" value="включает" style="edgeLabel;html=1;align=center;verticalAlign=middle;resizable=0;points=[];" vertex="1" connectable="0" parent="BrDhmX7CSqBO9YSk4uF9-34">
          <mxGeometry x="-0.5004" y="-2" relative="1" as="geometry">
            <mxPoint x="32" y="-4" as="offset" />
          </mxGeometry>
        </mxCell>
        <mxCell id="BrDhmX7CSqBO9YSk4uF9-40" style="rounded=0;orthogonalLoop=1;jettySize=auto;html=1;entryX=0;entryY=0.5;entryDx=0;entryDy=0;dashed=1;" edge="1" parent="1" source="BrDhmX7CSqBO9YSk4uF9-29" target="BrDhmX7CSqBO9YSk4uF9-39">
          <mxGeometry relative="1" as="geometry" />
        </mxCell>
        <mxCell id="BrDhmX7CSqBO9YSk4uF9-45" value="включает" style="edgeLabel;html=1;align=center;verticalAlign=middle;resizable=0;points=[];" vertex="1" connectable="0" parent="BrDhmX7CSqBO9YSk4uF9-40">
          <mxGeometry x="-0.3455" y="1" relative="1" as="geometry">
            <mxPoint x="16" as="offset" />
          </mxGeometry>
        </mxCell>
        <mxCell id="BrDhmX7CSqBO9YSk4uF9-29" value="Управление своими записями о правшем животном" style="ellipse;whiteSpace=wrap;html=1;" vertex="1" parent="1">
          <mxGeometry x="188" y="470" width="150" height="50" as="geometry" />
        </mxCell>
        <mxCell id="BrDhmX7CSqBO9YSk4uF9-53" style="edgeStyle=orthogonalEdgeStyle;rounded=0;orthogonalLoop=1;jettySize=auto;html=1;entryX=0;entryY=0.5;entryDx=0;entryDy=0;" edge="1" parent="1" source="BrDhmX7CSqBO9YSk4uF9-38" target="BrDhmX7CSqBO9YSk4uF9-54">
          <mxGeometry relative="1" as="geometry">
            <mxPoint x="180" y="750" as="targetPoint" />
          </mxGeometry>
        </mxCell>
        <mxCell id="BrDhmX7CSqBO9YSk4uF9-38" value="Администратор" style="shape=umlActor;verticalLabelPosition=bottom;verticalAlign=top;html=1;outlineConnect=0;" vertex="1" parent="1">
          <mxGeometry x="40" y="720" width="30" height="60" as="geometry" />
        </mxCell>
        <mxCell id="BrDhmX7CSqBO9YSk4uF9-39" value="Публикация записи" style="ellipse;whiteSpace=wrap;html=1;" vertex="1" parent="1">
          <mxGeometry x="490" y="470" width="150" height="50" as="geometry" />
        </mxCell>
        <mxCell id="BrDhmX7CSqBO9YSk4uF9-41" value="Публикация найденых животных" style="ellipse;whiteSpace=wrap;html=1;" vertex="1" parent="1">
          <mxGeometry x="180" y="5" width="150" height="50" as="geometry" />
        </mxCell>
        <mxCell id="BrDhmX7CSqBO9YSk4uF9-43" value="Записи с пропавшими домашними животными" style="ellipse;whiteSpace=wrap;html=1;" vertex="1" parent="1">
          <mxGeometry x="180" y="370" width="150" height="50" as="geometry" />
        </mxCell>
        <mxCell id="BrDhmX7CSqBO9YSk4uF9-47" style="rounded=0;orthogonalLoop=1;jettySize=auto;html=1;entryX=0;entryY=0.5;entryDx=0;entryDy=0;dashed=1;exitX=1;exitY=0.5;exitDx=0;exitDy=0;" edge="1" target="BrDhmX7CSqBO9YSk4uF9-49" parent="1" source="BrDhmX7CSqBO9YSk4uF9-29">
          <mxGeometry relative="1" as="geometry">
            <mxPoint x="338" y="565" as="sourcePoint" />
          </mxGeometry>
        </mxCell>
        <mxCell id="BrDhmX7CSqBO9YSk4uF9-48" value="включает" style="edgeLabel;html=1;align=center;verticalAlign=middle;resizable=0;points=[];" vertex="1" connectable="0" parent="BrDhmX7CSqBO9YSk4uF9-47">
          <mxGeometry x="-0.3455" y="1" relative="1" as="geometry">
            <mxPoint x="16" as="offset" />
          </mxGeometry>
        </mxCell>
        <mxCell id="BrDhmX7CSqBO9YSk4uF9-49" value="Удаление записи" style="ellipse;whiteSpace=wrap;html=1;" vertex="1" parent="1">
          <mxGeometry x="490" y="540" width="150" height="50" as="geometry" />
        </mxCell>
        <mxCell id="BrDhmX7CSqBO9YSk4uF9-50" style="rounded=0;orthogonalLoop=1;jettySize=auto;html=1;entryX=0;entryY=0.5;entryDx=0;entryDy=0;dashed=1;exitX=1;exitY=0.5;exitDx=0;exitDy=0;" edge="1" target="BrDhmX7CSqBO9YSk4uF9-52" parent="1" source="BrDhmX7CSqBO9YSk4uF9-29">
          <mxGeometry relative="1" as="geometry">
            <mxPoint x="338" y="575" as="sourcePoint" />
          </mxGeometry>
        </mxCell>
        <mxCell id="BrDhmX7CSqBO9YSk4uF9-51" value="включает" style="edgeLabel;html=1;align=center;verticalAlign=middle;resizable=0;points=[];" vertex="1" connectable="0" parent="BrDhmX7CSqBO9YSk4uF9-50">
          <mxGeometry x="-0.3455" y="1" relative="1" as="geometry">
            <mxPoint x="16" as="offset" />
          </mxGeometry>
        </mxCell>
        <mxCell id="BrDhmX7CSqBO9YSk4uF9-52" value="Редактирование записи" style="ellipse;whiteSpace=wrap;html=1;" vertex="1" parent="1">
          <mxGeometry x="490" y="620" width="150" height="50" as="geometry" />
        </mxCell>
        <mxCell id="BrDhmX7CSqBO9YSk4uF9-54" value="Управление аккаунтами пользователей" style="ellipse;whiteSpace=wrap;html=1;" vertex="1" parent="1">
          <mxGeometry x="180" y="725" width="150" height="50" as="geometry" />
        </mxCell>
        <mxCell id="BrDhmX7CSqBO9YSk4uF9-55" style="rounded=0;orthogonalLoop=1;jettySize=auto;html=1;entryX=0;entryY=0.5;entryDx=0;entryDy=0;dashed=1;exitX=1;exitY=0.5;exitDx=0;exitDy=0;" edge="1" target="BrDhmX7CSqBO9YSk4uF9-57" parent="1" source="BrDhmX7CSqBO9YSk4uF9-54">
          <mxGeometry relative="1" as="geometry">
            <mxPoint x="350" y="750" as="sourcePoint" />
          </mxGeometry>
        </mxCell>
        <mxCell id="BrDhmX7CSqBO9YSk4uF9-56" value="включает" style="edgeLabel;html=1;align=center;verticalAlign=middle;resizable=0;points=[];" vertex="1" connectable="0" parent="BrDhmX7CSqBO9YSk4uF9-55">
          <mxGeometry x="-0.3455" y="1" relative="1" as="geometry">
            <mxPoint x="16" as="offset" />
          </mxGeometry>
        </mxCell>
        <mxCell id="BrDhmX7CSqBO9YSk4uF9-57" value="Просмотр аккаунта" style="ellipse;whiteSpace=wrap;html=1;" vertex="1" parent="1">
          <mxGeometry x="490" y="725" width="150" height="50" as="geometry" />
        </mxCell>
        <mxCell id="BrDhmX7CSqBO9YSk4uF9-59" style="rounded=0;orthogonalLoop=1;jettySize=auto;html=1;entryX=0;entryY=0.5;entryDx=0;entryDy=0;dashed=1;exitX=1;exitY=0.5;exitDx=0;exitDy=0;" edge="1" target="BrDhmX7CSqBO9YSk4uF9-61" parent="1" source="BrDhmX7CSqBO9YSk4uF9-54">
          <mxGeometry relative="1" as="geometry">
            <mxPoint x="330" y="825" as="sourcePoint" />
          </mxGeometry>
        </mxCell>
        <mxCell id="BrDhmX7CSqBO9YSk4uF9-60" value="включает" style="edgeLabel;html=1;align=center;verticalAlign=middle;resizable=0;points=[];" vertex="1" connectable="0" parent="BrDhmX7CSqBO9YSk4uF9-59">
          <mxGeometry x="-0.3455" y="1" relative="1" as="geometry">
            <mxPoint x="16" as="offset" />
          </mxGeometry>
        </mxCell>
        <mxCell id="BrDhmX7CSqBO9YSk4uF9-61" value="Удаление аккаунта" style="ellipse;whiteSpace=wrap;html=1;" vertex="1" parent="1">
          <mxGeometry x="490" y="800" width="150" height="50" as="geometry" />
        </mxCell>
        <mxCell id="BrDhmX7CSqBO9YSk4uF9-62" value="Управление записями пользователей" style="ellipse;whiteSpace=wrap;html=1;" vertex="1" parent="1">
          <mxGeometry x="188" y="890" width="150" height="50" as="geometry" />
        </mxCell>
        <mxCell id="BrDhmX7CSqBO9YSk4uF9-64" style="rounded=0;orthogonalLoop=1;jettySize=auto;html=1;entryX=0;entryY=0.5;entryDx=0;entryDy=0;dashed=1;exitX=1;exitY=0.5;exitDx=0;exitDy=0;" edge="1" target="BrDhmX7CSqBO9YSk4uF9-66" parent="1" source="BrDhmX7CSqBO9YSk4uF9-62">
          <mxGeometry relative="1" as="geometry">
            <mxPoint x="338" y="915" as="sourcePoint" />
          </mxGeometry>
        </mxCell>
        <mxCell id="BrDhmX7CSqBO9YSk4uF9-65" value="включает" style="edgeLabel;html=1;align=center;verticalAlign=middle;resizable=0;points=[];" vertex="1" connectable="0" parent="BrDhmX7CSqBO9YSk4uF9-64">
          <mxGeometry x="-0.3455" y="1" relative="1" as="geometry">
            <mxPoint x="16" as="offset" />
          </mxGeometry>
        </mxCell>
        <mxCell id="BrDhmX7CSqBO9YSk4uF9-66" value="Редактирование записей" style="ellipse;whiteSpace=wrap;html=1;" vertex="1" parent="1">
          <mxGeometry x="498" y="890" width="150" height="50" as="geometry" />
        </mxCell>
        <mxCell id="BrDhmX7CSqBO9YSk4uF9-67" style="rounded=0;orthogonalLoop=1;jettySize=auto;html=1;entryX=0;entryY=0.5;entryDx=0;entryDy=0;dashed=1;exitX=1;exitY=0.5;exitDx=0;exitDy=0;" edge="1" target="BrDhmX7CSqBO9YSk4uF9-69" parent="1" source="BrDhmX7CSqBO9YSk4uF9-62">
          <mxGeometry relative="1" as="geometry">
            <mxPoint x="338" y="915" as="sourcePoint" />
          </mxGeometry>
        </mxCell>
        <mxCell id="BrDhmX7CSqBO9YSk4uF9-68" value="включает" style="edgeLabel;html=1;align=center;verticalAlign=middle;resizable=0;points=[];" vertex="1" connectable="0" parent="BrDhmX7CSqBO9YSk4uF9-67">
          <mxGeometry x="-0.3455" y="1" relative="1" as="geometry">
            <mxPoint x="16" as="offset" />
          </mxGeometry>
        </mxCell>
        <mxCell id="BrDhmX7CSqBO9YSk4uF9-69" value="&amp;nbsp;Удаление записей" style="ellipse;whiteSpace=wrap;html=1;" vertex="1" parent="1">
          <mxGeometry x="498" y="965" width="150" height="50" as="geometry" />
        </mxCell>
        <mxCell id="BrDhmX7CSqBO9YSk4uF9-71" style="edgeStyle=orthogonalEdgeStyle;rounded=0;orthogonalLoop=1;jettySize=auto;html=1;entryX=0;entryY=0.5;entryDx=0;entryDy=0;" edge="1" parent="1" source="BrDhmX7CSqBO9YSk4uF9-70" target="BrDhmX7CSqBO9YSk4uF9-62">
          <mxGeometry relative="1" as="geometry" />
        </mxCell>
        <mxCell id="BrDhmX7CSqBO9YSk4uF9-82" style="rounded=0;orthogonalLoop=1;jettySize=auto;html=1;entryX=0;entryY=0.5;entryDx=0;entryDy=0;" edge="1" parent="1" source="BrDhmX7CSqBO9YSk4uF9-70" target="BrDhmX7CSqBO9YSk4uF9-75">
          <mxGeometry relative="1" as="geometry" />
        </mxCell>
        <mxCell id="BrDhmX7CSqBO9YSk4uF9-70" value="Модератор" style="shape=umlActor;verticalLabelPosition=bottom;verticalAlign=top;html=1;outlineConnect=0;" vertex="1" parent="1">
          <mxGeometry x="40" y="885" width="30" height="60" as="geometry" />
        </mxCell>
        <mxCell id="BrDhmX7CSqBO9YSk4uF9-74" value="" style="edgeStyle=orthogonalEdgeStyle;rounded=0;orthogonalLoop=1;jettySize=auto;html=1;" edge="1" parent="1" source="BrDhmX7CSqBO9YSk4uF9-72" target="BrDhmX7CSqBO9YSk4uF9-73">
          <mxGeometry relative="1" as="geometry" />
        </mxCell>
        <mxCell id="BrDhmX7CSqBO9YSk4uF9-72" value="Рекломадотель" style="shape=umlActor;verticalLabelPosition=bottom;verticalAlign=top;html=1;outlineConnect=0;" vertex="1" parent="1">
          <mxGeometry x="40" y="1330" width="30" height="60" as="geometry" />
        </mxCell>
        <mxCell id="BrDhmX7CSqBO9YSk4uF9-73" value="Управление своими рекламными записями" style="ellipse;whiteSpace=wrap;html=1;" vertex="1" parent="1">
          <mxGeometry x="180" y="1335" width="150" height="50" as="geometry" />
        </mxCell>
        <mxCell id="BrDhmX7CSqBO9YSk4uF9-75" value="Управление рекламными записями" style="ellipse;whiteSpace=wrap;html=1;" vertex="1" parent="1">
          <mxGeometry x="188" y="1040" width="150" height="50" as="geometry" />
        </mxCell>
        <mxCell id="BrDhmX7CSqBO9YSk4uF9-76" style="rounded=0;orthogonalLoop=1;jettySize=auto;html=1;entryX=0;entryY=0.5;entryDx=0;entryDy=0;dashed=1;exitX=1;exitY=0.5;exitDx=0;exitDy=0;" edge="1" parent="1" source="BrDhmX7CSqBO9YSk4uF9-75" target="BrDhmX7CSqBO9YSk4uF9-78">
          <mxGeometry relative="1" as="geometry">
            <mxPoint x="338" y="1065" as="sourcePoint" />
          </mxGeometry>
        </mxCell>
        <mxCell id="BrDhmX7CSqBO9YSk4uF9-77" value="включает" style="edgeLabel;html=1;align=center;verticalAlign=middle;resizable=0;points=[];" vertex="1" connectable="0" parent="BrDhmX7CSqBO9YSk4uF9-76">
          <mxGeometry x="-0.3455" y="1" relative="1" as="geometry">
            <mxPoint x="16" as="offset" />
          </mxGeometry>
        </mxCell>
        <mxCell id="BrDhmX7CSqBO9YSk4uF9-78" value="Публикация записей" style="ellipse;whiteSpace=wrap;html=1;" vertex="1" parent="1">
          <mxGeometry x="498" y="1040" width="150" height="50" as="geometry" />
        </mxCell>
        <mxCell id="BrDhmX7CSqBO9YSk4uF9-79" style="rounded=0;orthogonalLoop=1;jettySize=auto;html=1;entryX=0;entryY=0.5;entryDx=0;entryDy=0;dashed=1;exitX=1;exitY=0.5;exitDx=0;exitDy=0;" edge="1" parent="1" source="BrDhmX7CSqBO9YSk4uF9-75" target="BrDhmX7CSqBO9YSk4uF9-81">
          <mxGeometry relative="1" as="geometry">
            <mxPoint x="338" y="1065" as="sourcePoint" />
          </mxGeometry>
        </mxCell>
        <mxCell id="BrDhmX7CSqBO9YSk4uF9-80" value="включает" style="edgeLabel;html=1;align=center;verticalAlign=middle;resizable=0;points=[];" vertex="1" connectable="0" parent="BrDhmX7CSqBO9YSk4uF9-79">
          <mxGeometry x="-0.3455" y="1" relative="1" as="geometry">
            <mxPoint x="16" as="offset" />
          </mxGeometry>
        </mxCell>
        <mxCell id="BrDhmX7CSqBO9YSk4uF9-81" value="&amp;nbsp;Удаление записей" style="ellipse;whiteSpace=wrap;html=1;" vertex="1" parent="1">
          <mxGeometry x="498" y="1115" width="150" height="50" as="geometry" />
        </mxCell>
        <mxCell id="BrDhmX7CSqBO9YSk4uF9-83" value="&amp;nbsp;Редактирвоание записей" style="ellipse;whiteSpace=wrap;html=1;" vertex="1" parent="1">
          <mxGeometry x="503.89" y="1190" width="150" height="50" as="geometry" />
        </mxCell>
        <mxCell id="BrDhmX7CSqBO9YSk4uF9-84" style="rounded=0;orthogonalLoop=1;jettySize=auto;html=1;entryX=0;entryY=0.5;entryDx=0;entryDy=0;dashed=1;exitX=1;exitY=0.5;exitDx=0;exitDy=0;" edge="1" parent="1" source="BrDhmX7CSqBO9YSk4uF9-75" target="BrDhmX7CSqBO9YSk4uF9-83">
          <mxGeometry relative="1" as="geometry">
            <mxPoint x="340" y="1080" as="sourcePoint" />
            <mxPoint x="490" y="1205" as="targetPoint" />
          </mxGeometry>
        </mxCell>
        <mxCell id="BrDhmX7CSqBO9YSk4uF9-85" value="включает" style="edgeLabel;html=1;align=center;verticalAlign=middle;resizable=0;points=[];" vertex="1" connectable="0" parent="BrDhmX7CSqBO9YSk4uF9-84">
          <mxGeometry x="-0.3455" y="1" relative="1" as="geometry">
            <mxPoint x="16" as="offset" />
          </mxGeometry>
        </mxCell>
        <mxCell id="BrDhmX7CSqBO9YSk4uF9-86" style="rounded=0;orthogonalLoop=1;jettySize=auto;html=1;entryX=0;entryY=0.5;entryDx=0;entryDy=0;dashed=1;exitX=1;exitY=0.5;exitDx=0;exitDy=0;" edge="1" target="BrDhmX7CSqBO9YSk4uF9-88" parent="1" source="BrDhmX7CSqBO9YSk4uF9-73">
          <mxGeometry relative="1" as="geometry">
            <mxPoint x="370" y="1350" as="sourcePoint" />
          </mxGeometry>
        </mxCell>
        <mxCell id="BrDhmX7CSqBO9YSk4uF9-87" value="включает" style="edgeLabel;html=1;align=center;verticalAlign=middle;resizable=0;points=[];" vertex="1" connectable="0" parent="BrDhmX7CSqBO9YSk4uF9-86">
          <mxGeometry x="-0.3455" y="1" relative="1" as="geometry">
            <mxPoint x="16" as="offset" />
          </mxGeometry>
        </mxCell>
        <mxCell id="BrDhmX7CSqBO9YSk4uF9-88" value="Размещение записи" style="ellipse;whiteSpace=wrap;html=1;" vertex="1" parent="1">
          <mxGeometry x="503.89" y="1335" width="150" height="50" as="geometry" />
        </mxCell>
        <mxCell id="BrDhmX7CSqBO9YSk4uF9-89" style="rounded=0;orthogonalLoop=1;jettySize=auto;html=1;entryX=0;entryY=0.5;entryDx=0;entryDy=0;dashed=1;exitX=1;exitY=0.5;exitDx=0;exitDy=0;" edge="1" target="BrDhmX7CSqBO9YSk4uF9-91" parent="1" source="BrDhmX7CSqBO9YSk4uF9-73">
          <mxGeometry relative="1" as="geometry">
            <mxPoint x="370" y="1350" as="sourcePoint" />
          </mxGeometry>
        </mxCell>
        <mxCell id="BrDhmX7CSqBO9YSk4uF9-90" value="включает" style="edgeLabel;html=1;align=center;verticalAlign=middle;resizable=0;points=[];" vertex="1" connectable="0" parent="BrDhmX7CSqBO9YSk4uF9-89">
          <mxGeometry x="-0.3455" y="1" relative="1" as="geometry">
            <mxPoint x="16" as="offset" />
          </mxGeometry>
        </mxCell>
        <mxCell id="BrDhmX7CSqBO9YSk4uF9-91" value="&amp;nbsp;Просмотр статистики своей рекламной записи" style="ellipse;whiteSpace=wrap;html=1;" vertex="1" parent="1">
          <mxGeometry x="503.89" y="1410" width="150" height="50" as="geometry" />
        </mxCell>
        <mxCell id="BrDhmX7CSqBO9YSk4uF9-95" value="&amp;nbsp;Просмотр статистики рекламной записи" style="ellipse;whiteSpace=wrap;html=1;" vertex="1" parent="1">
          <mxGeometry x="503.89" y="1260" width="150" height="50" as="geometry" />
        </mxCell>
        <mxCell id="BrDhmX7CSqBO9YSk4uF9-96" style="rounded=0;orthogonalLoop=1;jettySize=auto;html=1;entryX=0;entryY=0.5;entryDx=0;entryDy=0;dashed=1;exitX=1;exitY=0.5;exitDx=0;exitDy=0;" edge="1" parent="1" source="BrDhmX7CSqBO9YSk4uF9-75" target="BrDhmX7CSqBO9YSk4uF9-95">
          <mxGeometry relative="1" as="geometry">
            <mxPoint x="348" y="1075" as="sourcePoint" />
            <mxPoint x="514" y="1225" as="targetPoint" />
          </mxGeometry>
        </mxCell>
        <mxCell id="BrDhmX7CSqBO9YSk4uF9-97" value="включает" style="edgeLabel;html=1;align=center;verticalAlign=middle;resizable=0;points=[];" vertex="1" connectable="0" parent="BrDhmX7CSqBO9YSk4uF9-96">
          <mxGeometry x="-0.3455" y="1" relative="1" as="geometry">
            <mxPoint x="20" y="33" as="offset" />
          </mxGeometry>
        </mxCell>
      </root>
    </mxGraphModel>
  </diagram>
</mxfile>
